<mxfile host="app.diagrams.net" modified="2023-12-08T16:59:46.272Z" agent="Mozilla/5.0 (X11; Linux x86_64) AppleWebKit/537.36 (KHTML, like Gecko) Chrome/120.0.0.0 Safari/537.36" version="22.1.7" etag="MsbasZfkESnFc5vgxYK6" type="github">
  <diagram name="Page-1" id="aGK0IJ2msxZBUtmirj2K">
    <mxGraphModel>
      <root>
        <mxCell id="0" />
        <mxCell id="1" parent="0" />
      </root>
    </mxGraphModel>
  </diagram>
</mxfile>
